<svg width="100" height="100" viewBox="0 0 100 100" fill="none" xmlns="http://www.w3.org/2000/svg">
<g clip-path="url(#clip0)">
<path d="M99.0125 54.4751C98.398 54.0973 97.6322 54.0643 96.9875 54.3876L81.25 62.2542L65.5166 54.3833C64.7896 54.02 63.9176 54.1128 63.2832 54.6208L43.2541 70.6458L27.5875 66.7292C26.8769 66.5518 26.1256 66.7608 25.6084 67.2792L8.94177 83.9458C8.55232 84.3362 8.33357 84.8651 8.33337 85.4167V89.5833C8.33337 90.7338 9.26619 91.6667 10.4168 91.6667H97.9168C99.0674 91.6667 100 90.7338 100 89.5833V56.2501C100.001 55.5272 99.6273 54.8553 99.0125 54.4751Z" fill="#81C784"/>
<path d="M98.85 29.3875C98.1439 29.0336 97.2984 29.1096 96.6666 29.5834L81.0291 41.3125L65.5166 33.5541C64.7144 33.1537 63.7461 33.3115 63.1125 33.9457L42.8875 54.1666H27.0834C26.7596 54.1678 26.4402 54.2433 26.15 54.3875L9.48338 62.7209C8.7785 63.074 8.33338 63.7949 8.33338 64.5834V85.4168C8.33123 86.5674 9.26248 87.5017 10.4131 87.5039C10.9678 87.5049 11.5 87.2846 11.8918 86.8918L27.7252 71.0584L43.2502 74.9418C43.8818 75.0957 44.549 74.9496 45.0586 74.5459L64.8502 58.7125L80.3252 66.45C80.9115 66.743 81.6013 66.743 82.1877 66.45L98.8543 58.1166C99.559 57.7615 100.003 57.0389 100 56.25V31.25C100 30.4615 99.5549 29.7406 98.85 29.3875Z" fill="#4CAF50"/>
<path d="M99.0126 4.475C98.3981 4.09727 97.6323 4.06426 96.9876 4.3875L80.7585 12.5H64.5835C63.9653 12.5002 63.3792 12.775 62.9835 13.25L42.7751 37.5H10.4167C9.26606 37.5 8.33325 38.4328 8.33325 39.5834V64.5834C8.33325 65.734 9.26606 66.6668 10.4167 66.6666C10.7407 66.6666 11.0602 66.591 11.3499 66.4459L27.5749 58.3334H43.7501C44.303 58.3344 44.8337 58.1156 45.2251 57.725L65.0001 37.95L80.3251 45.6125C81.029 45.9629 81.8702 45.8871 82.5001 45.4166L99.1667 32.9166C99.6913 32.5232 100 31.9057 100 31.25V6.25C100.001 5.52715 99.6274 4.85527 99.0126 4.475Z" fill="#388E3C"/>
<path d="M97.9166 91.6666H2.0834C0.932813 91.6666 0 90.734 0 89.5834C0 88.4328 0.932813 87.5 2.0834 87.5H97.9168C99.0674 87.5 100 88.4328 100 89.5834C100 90.734 99.0672 91.6666 97.9166 91.6666Z" fill="#455A64"/>
<path d="M10.4167 100C9.26606 100 8.33325 99.0672 8.33325 97.9166V2.0834C8.33345 0.932813 9.26606 0 10.4167 0C11.5672 0 12.5 0.932813 12.5 2.0834V97.9168C12.5 99.0672 11.5672 100 10.4167 100Z" fill="#455A64"/>
</g>
<defs>
<clipPath id="clip0">
<rect width="100" height="100" fill="white"/>
</clipPath>
</defs>
</svg>
