<svg width="70" height="70" viewBox="0 0 70 70" fill="none" xmlns="http://www.w3.org/2000/svg">
<g clip-path="url(#clip0)">
<path d="M14.4577 24.7804V23.1096C14.4577 22.5431 13.9986 22.0842 13.4323 22.0842C12.8661 22.0842 12.407 22.5431 12.407 23.1096V24.7804C12.407 25.3467 12.8661 25.8058 13.4323 25.8058C13.9986 25.8058 14.4577 25.3467 14.4577 24.7804ZM42.4614 59.6985C41.3088 60.3706 40.1085 61.0308 38.894 61.6609C36.3057 63.0045 33.215 63.0045 30.6264 61.6609C21.4309 56.8889 13.9247 50.8342 8.91912 44.1515C4.42586 38.1527 2.05078 31.8859 2.05078 26.0285C2.05078 21.0693 4.39277 16.4083 8.47643 13.2406C8.92391 12.8937 9.00525 12.2494 8.65826 11.802C8.311 11.3543 7.66705 11.273 7.21957 11.6203C2.63143 15.1792 0 20.4307 0 26.0285C0 32.3326 2.51658 39.0247 7.27768 45.381C12.467 52.3091 20.2141 58.5681 29.6816 63.4815C32.8613 65.1317 36.6583 65.1322 39.8386 63.4815C41.0828 62.8358 42.3127 62.1592 43.4942 61.4704C43.9835 61.185 44.1488 60.5572 43.8636 60.068C43.5786 59.5787 42.9505 59.4134 42.4614 59.6985ZM30.822 22.0842C30.2557 22.0842 29.7966 22.5431 29.7966 23.1096V24.7804C29.7966 25.3467 30.2557 25.8058 30.822 25.8058C31.3883 25.8058 31.8474 25.3467 31.8474 24.7804V23.1096C31.8474 22.5433 31.3883 22.0842 30.822 22.0842ZM22.1272 26.8003C23.3021 26.8003 24.4193 26.2914 25.1926 25.4042C25.5646 24.9773 25.5202 24.3296 25.0932 23.9575C24.6663 23.5855 24.0186 23.6299 23.6465 24.0569C23.2628 24.4971 22.7091 24.7495 22.1272 24.7495C21.5454 24.7495 20.9915 24.497 20.6079 24.0569C20.2357 23.63 19.5882 23.5856 19.1611 23.9575C18.7342 24.3296 18.6897 24.9773 19.0617 25.4042C19.835 26.2915 20.9523 26.8003 22.1272 26.8003ZM46.5998 26.1581H41.2755C39.9297 26.1581 38.8348 27.2529 38.8348 28.5988V34.3131H33.1207C31.7748 34.3131 30.68 35.4079 30.68 36.7537V42.0779C30.68 43.4238 31.7748 44.5186 33.1207 44.5186H38.8348V50.2328C38.8348 51.5786 39.9297 52.6735 41.2755 52.6735H46.5998C47.9456 52.6735 49.0405 51.5786 49.0405 50.2328V44.5186H54.7546C56.1005 44.5186 57.1953 43.4238 57.1953 42.0779V36.7537C57.1953 35.4078 56.1005 34.3131 54.7546 34.3131H49.0405V28.5988C49.0405 27.2529 47.9456 26.1581 46.5998 26.1581ZM54.7546 36.3639C54.9697 36.3639 55.1446 36.5387 55.1446 36.7538V42.078C55.1446 42.293 54.9697 42.468 54.7546 42.468H48.3669C47.6075 42.468 46.9897 43.0857 46.9897 43.8451V50.2329C46.9897 50.4478 46.8148 50.6228 46.5998 50.6228H41.2755C41.0605 50.6228 40.8856 50.448 40.8856 50.2329V43.8451C40.8856 43.0857 40.2678 42.468 39.5084 42.468H33.1207C32.9056 42.468 32.7307 42.2931 32.7307 42.078V36.7538C32.7307 36.5389 32.9056 36.3639 33.1207 36.3639H39.5084C40.2678 36.3639 40.8856 35.7461 40.8856 34.9867V28.5988C40.8856 28.3839 41.0605 28.2089 41.2755 28.2089H46.5998C46.8148 28.2089 46.9897 28.3837 46.9897 28.5988V34.9867C46.9897 35.7462 47.6075 36.3639 48.3669 36.3639H54.7546ZM70 18.3347V14.035C70 12.8394 69.0272 11.8666 67.8316 11.8666H63.4143V7.44924C63.4143 6.25364 62.4415 5.28088 61.2459 5.28088H56.9461C55.7504 5.28088 54.7777 6.25364 54.7777 7.44924V7.99161C47.709 6.24174 39.8688 8.26928 34.7602 13.8645C28.9607 7.51254 19.4897 5.65768 11.5913 9.04748C11.0709 9.27088 10.83 9.87381 11.0534 10.3943C11.2767 10.9147 11.8796 11.155 12.4001 10.9323C19.4998 7.88497 28.192 9.51534 33.4421 15.466C34.1421 16.2593 35.3764 16.2614 36.0783 15.466C40.6937 10.2348 48.0782 8.25602 54.7777 10.1107V11.8665H50.3604C49.1646 11.8665 48.192 12.8392 48.192 14.0348V18.3345C48.192 19.5301 49.1647 20.5029 50.3604 20.5029H54.7777V24.9203C54.7777 26.1159 55.7505 27.0886 56.9461 27.0886H61.2459C62.4415 27.0886 63.4143 26.1159 63.4143 24.9203V20.5029H66.4617C69.0338 27.3169 66.3001 35.4432 62.4176 41.5301C58.7472 47.2846 53.4051 52.5389 46.5395 57.1473C46.0693 57.463 45.9441 58.1001 46.2596 58.5701C46.5742 59.0388 47.2104 59.1667 47.6824 58.8501C61.3566 49.6714 69.5203 37.4016 69.5203 26.0284C69.5203 24.0879 69.2077 22.1882 68.5902 20.3631C69.4124 20.0547 70 19.263 70 18.3347ZM67.9492 18.3347C67.9492 18.3996 67.8964 18.4522 67.8316 18.4522C67.2036 18.4522 62.9182 18.4522 62.673 18.4522C61.951 18.4522 61.3635 19.0397 61.3635 19.7617V24.9203C61.3635 24.9852 61.3107 25.0378 61.2459 25.0378H56.9461C56.8811 25.0378 56.8285 24.9851 56.8285 24.9203V19.7617C56.8285 19.0397 56.2412 18.4522 55.519 18.4522H50.3604C50.2954 18.4522 50.2428 18.3995 50.2428 18.3347V14.035C50.2428 13.97 50.2955 13.9174 50.3604 13.9174H55.519C56.241 13.9174 56.8285 13.3299 56.8285 12.6079C56.8285 10.3443 56.8284 13.5235 56.8285 7.44938C56.8285 7.38444 56.8813 7.3318 56.9461 7.3318H61.2459C61.3107 7.3318 61.3635 7.38457 61.3635 7.44938V12.6079C61.3635 13.3299 61.951 13.9174 62.673 13.9174H67.8316C67.8964 13.9174 67.9492 13.9702 67.9492 14.035V18.3347Z" fill="#0ACF83"/>
</g>
<defs>
<clipPath id="clip0">
<rect width="70" height="70" fill="white"/>
</clipPath>
</defs>
</svg>
