<svg width="70" height="70" viewBox="0 0 70 70" fill="none" xmlns="http://www.w3.org/2000/svg">
<path d="M60.9765 59.0624V25.9765C60.9765 19.0651 58.267 12.5494 53.347 7.62942C48.4271 2.70948 41.9114 0 35 0C30.1073 0 25.3307 1.38468 21.1869 4.0042C20.5487 4.4078 20.3584 5.2523 20.7619 5.8905C21.1655 6.52857 22.01 6.71929 22.6482 6.31556C26.3541 3.97276 30.6253 2.73436 35 2.73436C47.8157 2.73436 58.2421 13.1608 58.2421 25.9765V59.0624H11.7579V25.9765C11.7579 21.6009 12.9963 17.3297 15.3391 13.6245C15.7426 12.9863 15.5525 12.1418 14.9143 11.7382C14.2757 11.3345 13.4315 11.5249 13.028 12.163C10.4082 16.3064 9.02354 21.0829 9.02354 25.9765V59.0624C6.00808 59.0624 3.55481 61.5157 3.55481 64.5311V68.6328C3.55481 69.3878 4.16703 70 4.92199 70H65.078C65.833 70 66.4452 69.3878 66.4452 68.6328V64.5311C66.4452 61.5157 63.9919 59.0624 60.9765 59.0624ZM63.7108 67.2656H6.28917V64.5311C6.28917 63.0234 7.51581 61.7968 9.02354 61.7968H60.9765C62.4842 61.7968 63.7108 63.0234 63.7108 64.5311V67.2656Z" fill="black"/>
<path d="M22.6953 49.4921V54.9609C22.6953 55.7158 23.3075 56.3281 24.0625 56.3281H45.9375C46.6925 56.3281 47.3047 55.7158 47.3047 54.9609V49.4921C47.3047 48.7372 46.6925 48.1249 45.9375 48.1249H24.0625C23.3075 48.1249 22.6953 48.7372 22.6953 49.4921ZM25.4297 50.8593H44.5703V53.5937H25.4297V50.8593Z" fill="black"/>
<path d="M32.2662 44.0233C32.2662 44.7782 32.8785 45.3904 33.6334 45.3904H41.836C42.591 45.3904 43.2032 44.7782 43.2032 44.0233C43.2032 43.2683 42.591 42.6561 41.836 42.6561H33.6334C32.8783 42.6561 32.2662 43.2683 32.2662 44.0233Z" fill="black"/>
<path d="M29.5324 44.0233C29.5324 43.2683 28.9202 42.6561 28.1652 42.6561H28.1641C27.4092 42.6561 26.7975 43.2683 26.7975 44.0233C26.7975 44.7782 27.4101 45.3904 28.1652 45.3904C28.9203 45.3904 29.5324 44.7782 29.5324 44.0233Z" fill="black"/>
<path d="M17.5985 9.94206C17.9487 9.94206 18.2988 9.80849 18.5658 9.54148C19.0997 9.00759 19.0997 8.14189 18.5658 7.60786C18.0318 7.07411 17.1664 7.07411 16.6322 7.60786L16.6315 7.60855C16.0976 8.14243 16.0981 9.00773 16.6319 9.54175C16.899 9.80863 17.2487 9.94206 17.5985 9.94206Z" fill="black"/>
<path d="M30.8104 25.6418C30.8104 23.0276 28.6835 20.9006 26.0693 20.9006H22.6953C21.9404 20.9006 21.3281 21.5129 21.3281 22.2678V33.6326C21.3281 34.3875 21.9404 34.9998 22.6953 34.9998C23.4503 34.9998 24.0625 34.3875 24.0625 33.6326V30.3828H25.28L27.5509 34.3162C27.8042 34.7548 28.2636 35 28.7362 35C28.9681 35 29.2033 34.9408 29.4185 34.8166C30.0724 34.4389 30.2965 33.6029 29.9188 32.949L28.1568 29.8971C29.7272 29.1237 30.8104 27.5072 30.8104 25.6418ZM24.0626 23.635H26.0694C27.176 23.635 28.0762 24.5352 28.0762 25.6418C28.0762 26.7484 27.176 27.6485 26.0694 27.6485H24.0626V23.635Z" fill="black"/>
<path d="M35.0003 34.9998C35.7552 34.9998 36.3674 34.3875 36.3674 33.6326V22.2678C36.3674 21.5129 35.7552 20.9006 35.0003 20.9006C34.2453 20.9006 33.6331 21.5129 33.6331 22.2678V33.6326C33.6331 34.3877 34.2452 34.9998 35.0003 34.9998Z" fill="black"/>
<path d="M43.931 20.9005H40.557C39.802 20.9005 39.1898 21.5127 39.1898 22.2677V33.6324C39.1898 34.3874 39.802 34.9996 40.557 34.9996C41.312 34.9996 41.9242 34.3874 41.9242 33.6324V30.3826H43.931C46.5452 30.3826 48.6721 28.2557 48.6721 25.6415C48.6721 23.0273 46.5452 20.9005 43.931 20.9005ZM43.931 27.6484H41.9242V23.635H43.931C45.0376 23.635 45.9377 24.5352 45.9377 25.6418C45.9377 26.7484 45.0376 27.6484 43.931 27.6484Z" fill="black"/>
<path d="M47.3038 32.2651C46.5488 32.2651 45.9371 32.8773 45.9371 33.6323C45.9371 34.3872 46.5498 34.9995 47.3049 34.9995C48.06 34.9995 48.6721 34.3872 48.6721 33.6323C48.6721 32.8773 48.0598 32.2651 47.3049 32.2651H47.3038Z" fill="black"/>
</svg>
