<svg width="42" height="50" viewBox="0 0 42 50" fill="none" xmlns="http://www.w3.org/2000/svg">
<path d="M28.03 21.7351C26.997 21.7351 26.9958 23.2976 28.03 23.2976C30.6125 23.2976 31.9363 21.243 31.9363 18.6101C31.9363 13.6582 26.4675 13.6694 26.4675 17.8288C26.4675 18.8616 28.03 18.8633 28.03 17.8288C28.03 15.6902 30.3738 15.8112 30.3738 18.6101C30.3738 19.5497 30.1454 21.7351 28.03 21.7351Z" fill="#F24E1E"/>
<path d="M29.5925 37.5C28.1426 37.5016 26.7526 38.0783 25.7273 39.1036C24.7021 40.1288 24.1254 41.5189 24.1238 42.9688V49.2188C24.1238 50.2516 25.6863 50.2531 25.6863 49.2188V42.9688C25.6863 41.9328 26.0978 40.9392 26.8304 40.2066C27.563 39.4741 28.5565 39.0625 29.5925 39.0625C30.6285 39.0625 31.6221 39.4741 32.3547 40.2066C33.0872 40.9392 33.4988 41.9328 33.4988 42.9688V49.2188C33.4988 50.2516 35.0613 50.2531 35.0613 49.2188V42.9688C35.0597 41.5189 34.483 40.1288 33.4577 39.1036C32.4325 38.0783 31.0424 37.5016 29.5925 37.5V37.5Z" fill="#F24E1E"/>
<path d="M9.28125 26.5625H10.8426C11.8756 26.5625 11.8769 25 10.8426 25H9.28125C9.07405 25 8.87534 25.0823 8.72882 25.2288C8.58231 25.3753 8.5 25.574 8.5 25.7812C8.5 25.9885 8.58231 26.1872 8.72882 26.3337C8.87534 26.4802 9.07405 26.5625 9.28125 26.5625Z" fill="#F24E1E"/>
<path d="M13.1863 31.25V32.8125C13.1863 33.8454 14.7488 33.8469 14.7488 32.8125V31.25C14.7488 30.2172 13.1863 30.2157 13.1863 31.25Z" fill="#F24E1E"/>
<path d="M9.50885 29.9163C9.40001 30.0257 9.32598 30.1649 9.29607 30.3163C9.26617 30.4677 9.28173 30.6246 9.34079 30.7671C9.39985 30.9097 9.49978 31.0317 9.62799 31.1176C9.7562 31.2035 9.90696 31.2495 10.0613 31.25C10.6155 31.25 10.746 30.7966 12.1763 29.4586C12.9066 28.7283 11.803 27.6227 11.0713 28.3538L9.50885 29.9163Z" fill="#F24E1E"/>
<path d="M10.0626 33.5938C9.44123 33.5945 8.84551 33.8416 8.40613 34.281C7.96675 34.7204 7.71958 35.3161 7.71886 35.9375V37.7005C7.71886 38.3556 6.79415 38.5052 6.58712 37.8841L5.40695 34.3437L6.34581 30.5882C6.44212 30.2032 6.4494 29.8014 6.3671 29.4132C6.28481 29.025 6.1151 28.6606 5.87089 28.3478C5.62667 28.0351 5.31437 27.7821 4.95772 27.6081C4.60106 27.4341 4.20944 27.3437 3.81261 27.3438C2.84796 27.3438 3.12267 28.239 0.737414 34.1007C0.581164 34.5166 0.670519 34.1876 3.03136 44.6202V49.2188C3.03136 49.426 3.11367 49.6247 3.26018 49.7712C3.4067 49.9177 3.60541 50 3.81261 50C4.01981 50 4.21852 49.9177 4.36504 49.7712C4.51155 49.6247 4.59386 49.426 4.59386 49.2188V44.5312C4.59386 44.3631 4.71027 44.9781 2.28312 34.4288L4.30773 29.0297C4.51377 29.14 4.67706 29.316 4.77169 29.5297C4.86633 29.7434 4.88688 29.9826 4.83009 30.2093C3.84376 34.3235 3.72657 34.2425 3.85265 34.6221L5.1047 38.3781C5.87042 40.6753 9.28136 40.1223 9.28136 37.7005V35.9375C9.28136 34.9035 10.8439 34.9048 10.8439 35.9375C10.7502 36.6904 11.4056 40.3968 8.65636 44.0625C8.34581 44.4766 8.56027 44.4937 8.863 49.2787C8.9424 50.31 10.5001 50.1889 10.4209 49.1588L10.0821 44.7591C12.9793 40.6934 12.3142 36.6895 12.4064 35.9375C12.4056 35.3161 12.1585 34.7204 11.7191 34.281C11.2797 33.8416 10.684 33.5945 10.0626 33.5938V33.5938Z" fill="#F24E1E"/>
<path d="M40.7187 16.1647C41.6325 12.2803 41.4955 8.7618 40.3329 6.25721C39.4398 4.33338 38.0004 3.16932 36.2455 2.93465C34.5237 -0.302748 30.6779 -0.313295 27.0772 0.345787C26.0594 0.532017 26.343 2.06932 27.3586 1.8827C35.3427 0.420884 34.3196 4.40506 35.7072 4.45555C37.4447 4.51864 38.411 5.82792 38.9157 6.91512C39.9169 9.07196 40.0198 12.3129 39.1978 15.8069C38.2612 19.7888 36.2071 23.9309 33.245 27.8195C31.899 27.2273 30.8462 26.4045 30.0377 25.3155C29.4224 24.4862 28.1666 25.4164 28.7832 26.247C29.7641 27.5682 31.0868 28.59 32.7178 29.292V32.3419C31.3214 33.061 26.5084 35.3853 21.815 35.8541C24.1189 32.5547 23.0662 35.4478 23.3428 29.6875C23.3428 29.5688 23.3158 29.4516 23.2637 29.3449C23.2116 29.2382 23.1359 29.1447 23.0423 29.0717C22.5203 28.664 22.2123 29.0653 18.8748 29.8041C18.4363 29.9143 17.9745 29.8861 17.5527 29.7232C17.1309 29.5603 16.77 29.2708 16.5194 28.8945C17.4341 28.3021 18.9744 28.1025 18.6113 27.082C18.0477 25.4971 17.4852 24.3843 15.1096 24.5241C14.719 23.3894 14.7891 23.0258 14.3772 22.7723L12.5803 21.6667C14.5349 19.0685 14.7488 19.0788 14.7488 18.61V14.3193C17.1893 15.2505 19.2996 14.6403 24.905 14.8437C25.938 14.8437 25.9393 13.2812 24.905 13.2812H17.6658C17.5193 13.1778 11.4287 13.9236 10.8763 4.73846C13.2621 5.9787 17.2212 4.62049 21.4164 3.40057C22.4086 3.10946 21.968 1.61141 20.9769 1.90116C16.4052 3.33378 11.9198 4.63836 10.7796 2.63231C10.4516 1.92655 9.36247 2.10233 9.30338 2.93016C9.04811 6.48075 10.0982 11.2947 13.1869 13.4856V18.3428L10.8125 21.3958C10.7451 21.4825 10.6967 21.5824 10.6705 21.689C10.6443 21.7956 10.6408 21.9065 10.6604 22.0146C10.6799 22.1226 10.722 22.2253 10.7839 22.316C10.8459 22.4067 10.9262 22.4833 11.0197 22.5408L13.3053 23.9471C13.6829 24.8222 13.6218 26.2899 14.6588 26.1405C16.3735 25.8933 16.633 26.3173 16.8993 26.9582C15.8748 27.6085 14.4502 27.7637 14.7482 28.7568C15.0245 29.6822 15.6473 30.4652 16.4867 30.9427C17.3262 31.4202 18.3175 31.5553 19.2541 31.3198L21.7806 30.6882V33.3059C18.3747 37.3951 15.5306 43.4958 15.5306 49.2188C15.5306 50.2516 17.0931 50.2532 17.0931 49.2188C17.0931 44.5313 19.0589 40.2806 20.7502 37.4909C25.9702 37.3221 31.4591 34.7427 33.2697 33.8174C40.6877 44.0527 36.6726 50 38.9677 50C39.1749 50 39.3737 49.9177 39.5202 49.7712C39.6667 49.6247 39.749 49.4259 39.749 49.2187C39.749 43.4961 38.8289 38.6977 34.2802 32.5534V29.0353C37.4856 24.8963 39.7104 20.4513 40.7187 16.1647V16.1647Z" fill="#F24E1E"/>
<path d="M24.9062 1.56246C24.9062 0.529553 23.3438 0.528088 23.3438 1.56246C23.3438 2.59684 24.9062 2.59684 24.9062 1.56246Z" fill="#F24E1E"/>
</svg>
