<svg width="35" height="35" viewBox="0 0 35 35" fill="none" xmlns="http://www.w3.org/2000/svg">
<circle cx="17.5" cy="17.5" r="17.5" fill="#F24E1E"/>
<path d="M20.6153 23.3813L20.4057 24.238C19.777 24.4862 19.2747 24.6751 18.9007 24.8049C18.5263 24.9352 18.0913 25 17.5956 25C16.8344 25 16.2424 24.8135 15.8201 24.4432C15.3978 24.0713 15.1866 23.6001 15.1866 23.0285C15.1866 22.8072 15.202 22.5796 15.2338 22.3477C15.2659 22.1155 15.317 21.8541 15.3869 21.5618L16.1727 18.7806C16.2426 18.5143 16.302 18.2619 16.3496 18.0233C16.3979 17.7861 16.4212 17.568 16.4212 17.3715C16.4212 17.0164 16.3476 16.7679 16.2012 16.6282C16.0548 16.489 15.7755 16.4183 15.3607 16.4183C15.1576 16.4183 14.9488 16.4508 14.736 16.5137C14.5222 16.5769 14.3395 16.6379 14.1862 16.6947L14.3963 15.8372C14.911 15.6276 15.4031 15.4482 15.8737 15.2992C16.3444 15.1499 16.7891 15.0751 17.2098 15.0751C17.9657 15.0751 18.549 15.2578 18.9586 15.6232C19.3683 15.9889 19.573 16.4629 19.573 17.047C19.573 17.1679 19.5596 17.3808 19.5307 17.6852C19.5024 17.9902 19.4499 18.2697 19.3732 18.5239L18.5908 21.294C18.5267 21.5165 18.469 21.7708 18.4189 22.0571C18.3671 22.3414 18.3424 22.5586 18.3424 22.7044C18.3424 23.0722 18.4244 23.3233 18.5888 23.4568C18.7544 23.5903 19.0397 23.6567 19.4449 23.6567C19.6351 23.6567 19.8516 23.623 20.0921 23.5567C20.3319 23.4904 20.5068 23.4322 20.6153 23.3813ZM20.8137 11.7517C20.8137 12.2343 20.6318 12.6465 20.2663 12.9854C19.9017 13.3256 19.4624 13.4957 18.9484 13.4957C18.4329 13.4957 17.9925 13.3256 17.6237 12.9854C17.2556 12.6464 17.0712 12.2343 17.0712 11.7517C17.0712 11.27 17.2556 10.8572 17.6237 10.5139C17.9918 10.1713 18.433 10 18.9484 10C19.4622 10 19.9017 10.1717 20.2663 10.5139C20.6321 10.8572 20.8137 11.2702 20.8137 11.7517Z" fill="white"/>
</svg>
