<svg width="100" height="100" viewBox="0 0 100 100" fill="none" xmlns="http://www.w3.org/2000/svg">
<path d="M97.9153 87.4996H12.4998V2.08398C12.4998 0.93341 11.567 0.000610352 10.4165 0.000610352C9.26589 0.000610352 8.33328 0.93341 8.33328 2.08398V87.4994H2.08337C0.9328 87.4996 0 88.4322 0 89.5828C0 90.7333 0.9328 91.6661 2.08337 91.6661H8.33328V97.9161C8.33328 99.0666 9.26608 99.9994 10.4167 99.9994C11.5672 99.9994 12.4998 99.0666 12.4998 97.9161V91.6661H97.9153C99.0658 91.6661 99.9986 90.7333 99.9986 89.5828C99.9986 88.4322 99.0658 87.4996 97.9153 87.4996Z" fill="#455A64"/>
<path d="M18.7497 83.3328C17.5992 83.3312 16.6677 82.3971 16.6695 81.2465C16.6701 80.775 16.8306 80.3178 17.1248 79.9494L33.7911 59.1163C34.1597 58.6527 34.7081 58.3679 35.2995 58.333C35.8917 58.2964 36.4708 58.5183 36.887 58.9413L43.3328 65.3913L54.4576 46.8456C54.8121 46.2544 55.4361 45.8771 56.1242 45.8372C56.8023 45.8077 57.4555 46.0956 57.8908 46.6163L63.4657 53.5871L70.8781 18.3337C71.1158 17.2079 72.2213 16.488 73.347 16.7259C73.7425 16.8095 74.105 17.0062 74.3906 17.2921L85.1904 28.092L96.2487 13.3338C96.9381 12.4127 98.2438 12.2248 99.1648 12.914C100.086 13.6033 100.274 14.9091 99.5846 15.8302C99.5838 15.8314 99.5828 15.8326 99.582 15.8335L87.0822 32.4999C86.3918 33.4202 85.0859 33.6065 84.1654 32.9161C84.0875 32.8577 84.0137 32.7937 83.9447 32.7249L74.1658 22.9416L66.6241 58.7749C66.3872 59.9009 65.2823 60.6214 64.1563 60.3845C63.6831 60.2849 63.2593 60.0237 62.9575 59.6458L56.4951 51.5709L45.5369 69.8332C44.9498 70.8226 43.6717 71.149 42.6822 70.5619C42.5354 70.4748 42.3998 70.3699 42.2787 70.2498L35.6122 63.5833L20.379 82.5539C19.9825 83.0475 19.3829 83.3342 18.7497 83.3328Z" fill="#2196F3"/>
</svg>
