<svg width="100" height="100" viewBox="0 0 100 100" fill="none" xmlns="http://www.w3.org/2000/svg">
<g clip-path="url(#clip0)">
<path d="M52.0812 0C50.9318 0 50 0.931815 50 2.08117V47.8656C50 49.0149 50.9318 49.9467 52.0812 49.9467H97.8656C99.0149 49.9467 99.9468 49.0149 99.9468 47.8656C99.9167 21.4425 78.5041 0.0298509 52.0812 0Z" fill="#FFC107"/>
<path d="M74.5363 88.2097L45.8379 51.316V6.24334C45.8379 5.09399 44.906 4.16217 43.7567 4.16217C19.6575 4.16217 0.0534668 25.6351 0.0534668 52.0275C0.0833177 78.4506 21.4959 99.8633 47.9188 99.8931C57.5127 100.639 66.999 97.4641 74.2116 91.0941C75.0831 90.3793 75.2271 89.1006 74.5363 88.2097Z" fill="#2196F3"/>
<path d="M97.8654 54.1086H56.2433C55.094 54.1088 54.1623 55.0408 54.1627 56.1902C54.1627 56.6657 54.3256 57.1267 54.6243 57.4966L81.6788 90.9899C82.0417 91.4402 82.5755 91.719 83.1522 91.7599H83.2979C83.8245 91.7603 84.3318 91.5609 84.7173 91.2021C94.412 82.1359 99.9243 69.4631 99.9469 56.1896C99.9465 55.0405 99.0149 54.1086 97.8654 54.1086Z" fill="#4CAF50"/>
</g>
<defs>
<clipPath id="clip0">
<rect width="100" height="100" fill="white"/>
</clipPath>
</defs>
</svg>
