<svg width="35" height="35" viewBox="0 0 35 35" fill="none" xmlns="http://www.w3.org/2000/svg">
<circle cx="17.5" cy="17.5" r="17.5" fill="#1ABCFE"/>
<g clip-path="url(#clip0)">
<path d="M13.4437 15.875H10.3187C10.1462 15.875 10.0062 16.015 10.0062 16.1875V23.6875C10.0062 23.86 10.1462 24 10.3187 24H13.4437C13.6162 24 13.7563 23.86 13.7563 23.6875V16.1875C13.7562 16.015 13.6169 15.875 13.4437 15.875Z" fill="white"/>
<path d="M19.0563 9H15.9313C15.7588 9 15.6188 9.14001 15.6188 9.31251V23.6875C15.6188 23.86 15.7588 24 15.9313 24H19.0563C19.2288 24 19.3688 23.86 19.3688 23.6875V9.31251C19.3688 9.14001 19.2288 9 19.0563 9Z" fill="white"/>
<path d="M24.6813 12.125H21.5563C21.3838 12.125 21.2438 12.265 21.2438 12.4375V23.6875C21.2438 23.86 21.3838 24 21.5563 24H24.6813C24.8538 24 24.9938 23.86 24.9938 23.6875V12.4375C24.9938 12.265 24.8538 12.125 24.6813 12.125Z" fill="white"/>
</g>
<defs>
<clipPath id="clip0">
<rect width="15" height="15" fill="white" transform="translate(10 9)"/>
</clipPath>
</defs>
</svg>
