<svg width="70" height="66" viewBox="0 0 70 66" fill="none" xmlns="http://www.w3.org/2000/svg">
<path d="M51.4623 7.58443C47.1385 5.12513 42.2124 3.82507 37.2163 3.82507V5.87613C46.542 5.87613 55.0757 10.6285 60.0441 18.5889L61.7841 17.503C59.2219 13.3977 55.6527 9.96784 51.4623 7.58443Z" fill="black"/>
<path d="M62.5053 18.7233L60.7148 19.7238C61.0346 20.2961 61.3375 20.8878 61.6149 21.4827L63.4737 20.6156C63.1752 19.9757 62.8494 19.339 62.5053 18.7233Z" fill="black"/>
<path d="M64.042 21.9154L62.1431 22.691C62.3912 23.2986 62.6198 23.9227 62.823 24.5463L64.7734 23.9114C64.5549 23.2406 64.3088 22.5691 64.042 21.9154Z" fill="black"/>
<path d="M60.3977 9.81825C54.2056 3.62612 45.9729 0.215942 37.2159 0.215942C28.5112 0.215942 20.3135 3.59125 14.1328 9.72008C8.19725 15.6057 4.78447 23.3717 4.45785 31.6839H0L10.1965 46.1962L20.393 31.6839H16.0089C16.6935 20.6013 25.9968 11.7527 37.2158 11.7527C48.9318 11.7527 58.4631 21.2843 58.4631 33C58.4631 44.7157 48.9319 54.2475 37.2159 54.2475C29.5492 54.2475 22.4484 50.0908 18.6849 43.3998L18.0842 42.332L9.03738 49.7876L9.52314 50.5525C12.4291 55.1277 16.46 58.9481 21.1806 61.6006C26.0512 64.3374 31.5961 65.7841 37.2159 65.7841C45.9729 65.7841 54.2057 62.374 60.3977 56.1818C66.5897 49.9895 70 41.7568 70 33C70 24.2432 66.5898 16.0104 60.3977 9.81825ZM37.2159 63.733C26.9411 63.733 17.4885 58.6944 11.7506 50.2095L17.5228 45.4525C21.78 52.1726 29.2167 56.2985 37.2159 56.2985C50.0627 56.2985 60.5143 45.8468 60.5143 33.0001C60.5143 20.1535 50.0627 9.70149 37.2159 9.70149C31.0455 9.70149 25.2304 12.0896 20.8414 16.426C16.6976 20.5203 14.2758 25.9058 13.9553 31.6838H10.4623V33.7349H14.9268L15.957 33.7692L15.9575 33.7349H16.4454L10.1965 42.6284L3.94762 33.7349H6.475L6.48416 32.7185C6.63455 15.9275 20.4209 2.26686 37.2158 2.26686C54.1621 2.26686 67.9488 16.0537 67.9488 32.9999C67.9488 49.946 54.1621 63.733 37.2159 63.733Z" fill="black"/>
<path d="M17.1434 51.4084L15.6321 52.7952C18.3487 55.7558 21.5772 58.0884 25.2278 59.7281C29.0071 61.4258 33.0406 62.2865 37.2161 62.2865V60.2354C29.6069 60.2354 22.2908 57.0182 17.1434 51.4084Z" fill="black"/>
<path d="M51.8104 21.4168C49.2481 18.1924 45.6461 15.8794 41.6683 14.9038L41.1799 16.8958C48.6085 18.7179 53.7967 25.3401 53.7967 33V33.0026L55.8477 33C55.8478 28.7459 54.4518 24.7406 51.8104 21.4168Z" fill="black"/>
<path d="M55.7924 34.4473L53.7475 34.2899C53.6982 34.9307 53.6108 35.5743 53.488 36.2029L55.5009 36.5965C55.639 35.8901 55.7372 35.1668 55.7924 34.4473Z" fill="black"/>
<path d="M52.5664 39.2802L54.4645 40.0575C54.738 39.3895 54.9746 38.6988 55.1679 38.0046L53.1919 37.455C53.0199 38.0721 52.8096 38.6862 52.5664 39.2802Z" fill="black"/>
<path d="M27.4673 24.2091L28.9901 25.583C29.4084 25.1195 29.8692 24.688 30.3594 24.3011L29.0885 22.6914C28.508 23.1496 27.9626 23.6603 27.4673 24.2091Z" fill="black"/>
<path d="M24.0894 33C24.0894 40.2382 29.9778 46.1266 37.216 46.1266C38.3747 46.1266 39.5244 45.9754 40.6332 45.6772L40.1005 43.6966C39.1653 43.9482 38.1948 44.0756 37.216 44.0756C31.1089 44.0756 26.1404 39.1071 26.1404 33C26.1403 30.6714 26.8545 28.4437 28.2057 26.5575L26.5384 25.3632C24.9361 27.5996 24.0892 30.2405 24.0894 33Z" fill="black"/>
<path d="M30.302 21.8399L31.3841 23.5824C31.9146 23.2529 32.4767 22.9669 33.0544 22.7326L32.2833 20.832C31.598 21.1101 30.9313 21.4492 30.302 21.8399Z" fill="black"/>
<path d="M36.1903 15.2871V28.9517C34.3818 29.41 33.0398 31.0511 33.0398 33.0001C33.0398 35.3029 34.9131 37.1763 37.2159 37.1763C37.3013 37.1763 37.3858 37.1729 37.47 37.1679L45.1695 44.8673L49.0831 40.9537L41.3835 33.2541C41.3885 33.1701 41.3919 33.0854 41.3919 33.0001C41.3919 31.0511 40.0499 29.4102 38.2414 28.9517V15.2871H36.1903V15.2871ZM40.7937 35.565L46.1824 40.9537L45.1695 41.9667L39.7807 36.5779L40.7937 35.565ZM39.3409 33C39.3409 34.1718 38.3875 35.1251 37.2159 35.1251C36.0442 35.1251 35.0909 34.1718 35.0909 33C35.0909 31.8282 36.0442 30.8748 37.2159 30.8748C38.3875 30.875 39.3409 31.8282 39.3409 33Z" fill="black"/>
</svg>
